<?xml version="1.0" encoding="utf-8"?>
<!-- Created with: Axialis IconVectors - www.axialis.com -->
<svg xmlns="http://www.w3.org/2000/svg" version="1.1" xmlns:xlink="http://www.w3.org/1999/xlink" viewBox="0 0 26 26">
  <defs>
    <linearGradient id="SVGID_1_" x1="25.00%" y1="93.30%" x2="75.00%" y2="6.70%" gradientUnits="objectBoundingBox">
      <stop offset="0%" stop-color="#EF162A"/>
      <stop offset="100%" stop-color="#FF7D7D"/>
      <stop offset="100%" stop-color="#FFFFFF"/>
    </linearGradient>
  </defs>
  <path visibility="hidden" fill="#F25A70" d="M22.33,6.07 L20.19,8.19 C19.81,8.53 19.63,9.07 19.84,9.53 C21.26,12.5 20.73,16.05 18.39,18.38 C16.06,20.71 12.5,21.25 9.53,19.83 C9.09,19.63 8.57,19.8 8.23,20.14 L6.06,22.31 C5.81,22.56 5.68,22.91 5.72,23.27 C5.77,23.62 5.97,23.94 6.27,24.12 C11.38,27.21 17.95,26.43 22.18,22.21 C26.41,18 27.22,11.44 24.14,6.32 C23.96,6.01 23.65,5.8 23.29,5.75 C22.94,5.7 22.58,5.82 22.32,6.07 Z M3.86,3.76 C-.39,7.96 -1.23,14.52 1.84,19.65 C2.01,19.96 2.33,20.17 2.68,20.22 C3.04,20.27 3.39,20.15 3.65,19.9 L5.77,17.79 C6.16,17.46 6.35,16.91 6.13,16.44 C4.71,13.47 5.25,9.92 7.58,7.59 C9.92,5.26 13.47,4.72 16.45,6.14 C16.88,6.33 17.39,6.17 17.73,5.84 L19.91,3.66 C20.17,3.41 20.29,3.06 20.25,2.7 C20.21,2.35 20.01,2.03 19.7,1.85 C14.58,-1.22 8.03,-.41 3.81,3.82 Z"/>
  <g id="icon22 (traced)">
    <path visibility="visible" fill="url(#SVGID_1_)" fill-rule="nonzero" d="M13.19,.1 C11.79,.06 10.38,.3 9.04,.7 C6.29,1.57 3.87,3.39 2.25,5.78 C.92,7.69 .16,9.97 .02,12.29 C-.02,13.34 -.02,14.39 .19,15.42 C.64,17.98 1.9,20.41 3.79,22.22 C5.27,23.7 7.09,24.8 9.09,25.39 C10.5,25.83 11.99,26.04 13.48,25.99 C14,25.96 14.55,25.96 15.05,25.8 C14.79,25.42 14.41,25.09 14.09,24.74 C12.22,22.91 10.35,21.07 8.47,19.26 C7.47,18.3 6.52,17.29 5.92,16.03 C5.31,14.77 5.05,13.34 5.25,11.95 C5.55,9.82 6.91,7.89 8.74,6.75 C9.99,5.96 11.52,5.57 13,5.58 C14.18,5.61 15.33,5.91 16.4,6.42 C18.15,7.3 19.57,8.82 20.39,10.61 C20.72,11.31 20.93,12.06 21.07,12.82 C21.21,13.22 21.62,13.53 22.06,13.44 C23.2,13.44 24.34,13.47 25.46,13.44 C25.87,13.35 26.06,12.92 25.98,12.55 C25.83,9.78 24.81,7.05 23.02,4.9 C21.66,3.21 19.87,1.87 17.85,1.06 C16.39,.46 14.77,.12 13.19,.1 Z M13.15,11.62 C12.1,11.55 11.13,12.38 10.96,13.38 C10.84,14.07 11.17,14.73 11.68,15.16 C14.53,18.03 17.4,20.86 20.26,23.71 C20.8,24.12 21.54,24.19 22.13,23.88 C22.83,23.57 23.45,22.91 23.52,22.13 C23.59,21.69 23.45,21.3 23.18,20.97 C20.25,18.02 17.32,15.05 14.37,12.11 C14.05,11.82 13.6,11.61 13.15,11.62 Z"/>
  </g>
</svg>
